<?xml version="1.0" encoding="UTF-8" standalone="no"?>
<svg
   height="20px"
   viewBox="0 -960 960 960"
   width="20px"
   fill="#fff"
   version="1.1"
   id="svg4"
   sodipodi:docname="bike-white2.svg"
   inkscape:version="1.1 (c68e22c387, 2021-05-23)"
   xmlns:inkscape="http://www.inkscape.org/namespaces/inkscape"
   xmlns:sodipodi="http://sodipodi.sourceforge.net/DTD/sodipodi-0.dtd"
   xmlns="http://www.w3.org/2000/svg"
   xmlns:svg="http://www.w3.org/2000/svg">
  <defs
     id="defs8" />
  <sodipodi:namedview
     id="namedview6"
     pagecolor="#ffffff"
     bordercolor="#666666"
     borderopacity="1.0"
     inkscape:pageshadow="2"
     inkscape:pageopacity="0.0"
     inkscape:pagecheckerboard="0"
     showgrid="false"
     inkscape:zoom="44.95"
     inkscape:cx="9.9888765"
     inkscape:cy="10.03337"
     inkscape:window-width="2560"
     inkscape:window-height="1334"
     inkscape:window-x="-11"
     inkscape:window-y="-11"
     inkscape:window-maximized="1"
     inkscape:current-layer="svg4" />
  <path
     d="m 248.23137,-147.71969 q -69.33593,0 -118.20523,-48.8693 -48.869301,-48.8693 -48.869301,-118.20523 0,-69.33592 48.869301,-118.20522 48.8693,-48.8693 118.20523,-48.8693 69.33593,0 118.20523,48.8693 48.86929,48.8693 48.86929,118.20522 0,69.33593 -48.86929,118.20523 -48.8693,48.8693 -118.20523,48.8693 z m 0,-66.82981 q 41.76863,0 71.00667,-29.23804 29.23804,-29.23804 29.23804,-71.00668 0,-41.76863 -29.23804,-71.00667 -29.23804,-29.23804 -71.00667,-29.23804 -41.76863,0 -71.00667,29.23804 -29.23805,29.23804 -29.23805,71.00667 0,41.76864 29.23805,71.00668 29.23804,29.23804 71.00667,29.23804 z m 200.48943,-33.4149 v -167.07453 l -106.9277,-93.56174 q -10.85984,-8.35372 -15.45439,-20.46663 -4.59455,-12.1129 -4.59455,-26.31423 0,-13.36597 5.42992,-25.47887 5.42992,-12.1129 14.61902,-21.302 l 93.56174,-93.56174 q 8.35372,-10.85984 20.46663,-15.45439 12.1129,-4.59455 26.31424,-4.59455 14.20133,0 27.98498,5.42992 13.78365,5.42992 25.47886,14.61902 l 63.48832,63.48832 q 23.39044,23.39044 53.46385,36.7564 30.07342,13.36596 63.48832,13.36596 v 66.82981 q -47.61624,0 -90.63793,-18.3782 -43.02169,-18.37819 -76.43659,-51.7931 l -26.73193,-26.73192 -80.19577,80.19577 73.51279,76.85428 v 207.17242 z m 150.36707,-451.10123 q -27.56729,0 -47.19855,-19.63126 -19.63126,-19.63125 -19.63126,-47.19855 0,-27.5673 19.63126,-47.19855 19.63126,-19.63126 47.19855,-19.63126 27.5673,0 47.19856,19.63126 19.63126,19.63125 19.63126,47.19855 0,27.5673 -19.63126,47.19855 -19.63126,19.63126 -47.19856,19.63126 z m 116.95217,551.34594 q -69.33593,0 -118.20522,-48.8693 -48.8693,-48.8693 -48.8693,-118.20523 0,-69.33592 48.8693,-118.20522 48.86929,-48.8693 118.20522,-48.8693 69.33593,0 118.20523,48.8693 48.8693,48.8693 48.8693,118.20522 0,69.33593 -48.8693,118.20523 -48.8693,48.8693 -118.20523,48.8693 z m 0,-66.82981 q 41.76864,0 71.00668,-29.23804 29.23804,-29.23804 29.23804,-71.00668 0,-41.76863 -29.23804,-71.00667 -29.23804,-29.23804 -71.00668,-29.23804 -41.76863,0 -71.00667,29.23804 -29.23804,29.23804 -29.23804,71.00667 0,41.76864 29.23804,71.00668 29.23804,29.23804 71.00667,29.23804 z"
     id="path2"
     style="fill:#ffffff;stroke-width:0.835373" />
</svg>
