<?xml version="1.0" encoding="UTF-8" standalone="no"?>
<svg
   height="20px"
   viewBox="0 -960 960 960"
   width="20px"
   fill="#000000"
   version="1.1"
   id="svg4"
   sodipodi:docname="trailo2-white.svg"
   inkscape:version="1.1 (c68e22c387, 2021-05-23)"
   xmlns:inkscape="http://www.inkscape.org/namespaces/inkscape"
   xmlns:sodipodi="http://sodipodi.sourceforge.net/DTD/sodipodi-0.dtd"
   xmlns="http://www.w3.org/2000/svg"
   xmlns:svg="http://www.w3.org/2000/svg">
  <defs
     id="defs8" />
  <sodipodi:namedview
     id="namedview6"
     pagecolor="#ffffff"
     bordercolor="#666666"
     borderopacity="1.0"
     inkscape:pageshadow="2"
     inkscape:pageopacity="0.0"
     inkscape:pagecheckerboard="0"
     showgrid="false"
     inkscape:zoom="44.95"
     inkscape:cx="9.9888765"
     inkscape:cy="9.9888765"
     inkscape:window-width="2560"
     inkscape:window-height="1334"
     inkscape:window-x="-11"
     inkscape:window-y="-11"
     inkscape:window-maximized="1"
     inkscape:current-layer="svg4" />
  <g
     id="g845"
     transform="matrix(1.0082466,0,0,1.0544276,2.9715345,48.383885)"
     style="fill:#ffffff">
    <path
       d="m 173.41803,-185.41449 q -60.43263,0 -102.857448,-42.59906 -42.424806,-42.59148 -42.424806,-103.03168 0,-60.43262 42.546024,-102.85744 42.54603,-42.42481 102.91047,-42.42481 v 54.54619 q -37.8793,0 -64.3948,26.51551 -26.515508,26.5155 -26.515508,64.3948 0,37.87929 26.515508,64.39479 26.5155,26.51552 64.3948,26.51552 37.8793,0 64.3948,-26.51552 26.51551,-26.5155 26.51551,-64.39479 h 54.54618 q 0,60.60687 -42.59905,103.03168 -42.59148,42.42481 -103.03168,42.42481 z m 254.72311,-36.36412 v -145.4565 H 281.92706 q -28.78827,0 -45.07636,-23.86395 -16.2881,-23.86396 -4.92432,-51.13705 l 44.69758,-125.00167 h -78.78894 l -19.69723,45.45515 -50.00067,-21.2124 18.93965,-45.45516 q 6.06068,-15.15172 20.15935,-24.24275 14.09868,-9.09103 30.5989,-9.09103 h 157.57787 q 29.54585,0 45.83394,25.00034 16.2881,25.00033 3.40914,52.27342 l -49.24308,122.72892 h 72.72825 q 22.50029,0 38.52324,16.02294 16.02294,16.02294 16.02294,38.52324 v 145.4565 z M 418.86071,-630.875 q -26.32611,0 -44.88697,-18.75025 -18.56085,-18.75026 -18.56085,-45.07636 0,-26.32611 18.75025,-44.88696 18.75025,-18.56086 45.07636,-18.56086 26.32611,0 44.88697,18.75025 18.56085,18.75025 18.56085,45.07636 0,26.32611 -18.75025,44.88697 -18.75025,18.56085 -45.07636,18.56085 z"
       id="path2"
       style="stroke-width:0.757586;fill:#ffffff" />
    <path
       d="m 873.66844,-182.64951 -74.33622,-401.28415 63.14581,28.66316 v 89.36159 h 57.55054 v -129.82722 l -147.87298,-65.75665 q -7.99314,-3.37213 -15.58658,-5.05821 -7.59349,-1.68606 -14.78731,-1.68606 -20.78215,0 -36.76843,9.69489 -15.98624,9.69488 -27.17664,26.55556 l -7.19383,10.95945 q -18.38421,29.50618 -41.16465,61.96299 -22.78044,32.4568 -93.12006,32.4568 v 60.69845 q 51.9554,0 92.32074,-20.23281 40.36535,-20.23282 61.94682,-55.64025 l 16.78556,96.10588 -55.95192,59.01237 v 204.01421 h 57.55055 V -363.9018 l 58.34987,-47.2099 49.55741,228.46219 z m -183.8421,-505.82036 q 27.97595,0 47.55913,-20.65433 19.5832,-20.65433 19.5832,-50.16052 0,-29.50619 -19.5832,-50.16051 -19.58318,-20.65434 -47.55913,-20.65434 -27.97598,0 -47.55917,20.65434 -19.58319,20.65432 -19.58319,50.16051 0,29.50619 19.58319,50.16052 19.58319,20.65433 47.55917,20.65433 z"
       id="path2-2"
       style="stroke-width:0.820883;fill:#ffffff" />
  </g>
</svg>
